<svg xmlns="http://www.w3.org/2000/svg" width="12" height="19" viewBox="0 0 12 19"><g><g><path fill="#ccc" d="M5.016 13.383c-1.55-.154-2.946-.517-4.142-1.406-.149-.11-.302-.217-.437-.34-.524-.479-.577-1.026-.162-1.59.354-.483.949-.612 1.567-.335.12.054.234.12.343.193 2.23 1.456 5.292 1.496 7.53.065.221-.161.458-.293.733-.36.534-.13 1.032.056 1.318.5.328.507.324 1.002-.08 1.396-.618.604-1.363 1.04-2.19 1.345-.781.288-1.638.433-2.485.53.128.132.188.197.268.274 1.15 1.099 2.307 2.193 3.454 3.296.39.375.472.841.257 1.278-.235.478-.762.792-1.278.758-.328-.022-.583-.176-.81-.393-.868-.83-1.753-1.646-2.604-2.493-.248-.246-.367-.2-.585.014-.874.855-1.762 1.697-2.655 2.534-.401.376-.879.444-1.344.23-.494-.228-.809-.708-.785-1.19.017-.327.186-.576.421-.8 1.14-1.08 2.275-2.164 3.411-3.247.076-.072.146-.148.255-.26zm.944-3.766C3.196 9.608.93 7.43.946 4.798.96 2.138 3.23-.007 6.02.001c2.797.007 5.042 2.182 5.028 4.87-.014 2.627-2.296 4.755-5.089 4.746zm2.513-4.812C8.468 3.498 7.373 2.458 6 2.456c-1.383 0-2.488 1.058-2.477 2.377.01 1.302 1.114 2.334 2.49 2.33 1.371-.005 2.463-1.052 2.459-2.358z"/></g></g></svg>