<svg xmlns="http://www.w3.org/2000/svg" width="23" height="13" viewBox="0 0 23 13"><g><g><path fill="#48974c" d="M19.795 8.266c.763.744 1.568 1.444 2.253 2.263.302.364.588.74.807 1.162.31.6.03 1.26-.51 1.297l-3.35-.002c-.865.072-1.554-.275-2.134-.866-.464-.472-.893-.974-1.34-1.462a3.175 3.175 0 0 0-.602-.535c-.458-.297-.855-.206-1.116.27-.267.485-.327 1.022-.353 1.562-.036.788-.275.995-1.067 1.031-1.694.08-3.301-.176-4.795-1.03-1.316-.752-2.337-1.814-3.226-3.016C2.632 6.598 1.307 4.026.116 1.38-.152.786.044.466.702.454a91.942 91.942 0 0 1 3.28-.001c.445.006.74.261.91.68.592 1.453 1.316 2.834 2.224 4.115.242.341.489.682.84.922.389.266.684.178.867-.254.116-.274.167-.57.193-.863.087-1.01.098-2.019-.054-3.026C8.87 1.398 8.515.992 7.887.873c-.32-.06-.272-.18-.117-.363C8.039.195 8.292 0 8.797 0h3.787c.596.117.729.385.81.984l.004 4.201c-.007.232.116.92.534 1.074.335.11.555-.158.756-.37.907-.961 1.554-2.097 2.132-3.273.257-.518.477-1.055.691-1.591.158-.399.407-.595.856-.586l3.645.003c.108 0 .217.002.322.02.614.104.782.368.593.967-.3.94-.88 1.723-1.45 2.51-.607.84-1.257 1.651-1.86 2.496-.554.772-.51 1.16.178 1.83z"/></g></g></svg>